<svg xmlns="http://www.w3.org/2000/svg" viewBox="0 0 1853.01 450.12"><defs><style>.cls-1{fill:#e3051f;}</style></defs><title>Ресурс 1</title><g id="Слой_2" data-name="Слой 2"><g id="Слой_1-2" data-name="Слой 1"><path class="cls-1" d="M1753.81,274.95c0-9.79,9.78-12,20.38-14.95,6.52-1.63,13.32-3.53,19-7.61v17.66c-5.44,9-14.68,14.13-26.91,14.13-7.34,0-12.5-3.8-12.5-9.24m-42.13-45.12c12.5-8.7,36.15-15.22,60.06-15.22,13.86,0,21.47,2.17,21.47,7.61,0,7.88-11.14,9.51-30.17,12.77-28.81,5.17-67.4,12.23-67.4,47.84,0,26.91,16.58,41.85,46.47,41.85,20.93,0,37-8.15,51.09-23.65v20.38H1853V231.19c0-36.42-29.35-59.52-75.55-59.52-26.09,0-48.38,3.53-65.77,9.78Z"/><polygon class="cls-1" points="1525.24 321.43 1586.93 321.43 1586.93 257.56 1623.62 321.43 1696.73 321.43 1642.38 236.9 1697.01 174.66 1630.96 174.66 1586.93 236.9 1586.93 128.46 1525.24 128.46 1525.24 321.43"/><path class="cls-1" d="M1333.09,321.43h62V235c4.89-12,13-17.12,24.73-17.12,13.32,0,21.47,10.05,21.47,26.63v76.91h62.24v-87c0-37.51-23.65-62.51-59.25-62.51-21.2,0-38.86,8.15-51.37,22.83V174.66h-59.79Z"/><rect class="cls-1" x="1246.66" y="128.46" width="61.96" height="27.18"/><rect class="cls-1" x="1246.66" y="174.66" width="61.96" height="146.76"/><polygon class="cls-1" points="1084.95 321.43 1227.64 321.43 1227.64 277.94 1158.61 277.94 1225.46 217.06 1225.46 174.94 1090.39 174.66 1090.39 218.15 1151.27 218.15 1084.95 278.48 1084.95 321.43"/><path class="cls-1" d="M956.94,321.43h62V237.72c4.89-12.5,14.4-17.39,29.62-17.39,10.06,0,19.84,1.9,26.36,4.62V173a36.35,36.35,0,0,0-9.51-1.09c-20.66,0-37.23,9.79-48.65,26.63V174.66H956.94Z"/><path class="cls-1" d="M823.77,248c0-20.93,9.24-32.62,25.82-32.62s25.82,11.69,25.82,32.62-9.24,32.61-25.82,32.61S823.77,269,823.77,248m25.82,76.1c53.81,0,88.33-29.62,88.33-76.1,0-48.11-32.89-76.1-88.33-76.1-53.81,0-88.33,29.62-88.33,76.1,0,48.1,32.89,76.1,88.33,76.1"/><polygon class="cls-1" points="599.82 321.43 661.52 321.43 661.52 257.56 698.21 321.43 771.32 321.43 716.96 236.9 771.59 174.66 705.54 174.66 661.52 236.9 661.52 128.46 599.82 128.46 599.82 321.43"/><path class="cls-1" d="M455.48,68.27C428,24.24,379.11,0,317.76,0,195.76,0,63.41,95.35,16.45,217.07c-23.85,61.79-21.71,120.32,6,164.78,27.46,44,76.37,68.27,137.72,68.27,122,0,254.34-95.35,301.31-217.07,23.85-61.79,21.7-120.32-6-164.78M109.54,141.33c-3.49-3.82-3.51-9.4-2.6-14.14,1.06-5.46,5.43-11.13,9.62-14.52s10.57-6.39,16.2-6.39h59.76c5.21,0,9.77,1.62,13.29,5.48s3.51,9.4,2.6,14.14c-1.06,5.46-5.43,11.13-9.62,14.52s-10.57,6.39-16.2,6.39H122.83c-5.22,0-9.77-1.62-13.29-5.48m86.65,179c-5.09,13.19-19.43,23.52-32.65,23.52-6.65,0-11.95-2.63-14.92-7.4s-3.24-11.16-.65-17.86c5.09-13.19,19.43-23.52,32.65-23.52,6.65,0,11.95,2.63,14.93,7.4s3.24,11.16.65,17.86m103.69,0c-5.09,13.19-19.43,23.52-32.65,23.52-6.65,0-11.95-2.63-14.92-7.4s-3.24-11.16-.66-17.86c5.09-13.19,19.43-23.52,32.65-23.52,6.65,0,11.95,2.63,14.92,7.4s3.24,11.16.65,17.86m51.36-51.91c-2.62,11.05-14.32,20.91-25.82,20.91H174.8c-11.07,0-18.5-8.59-15.89-19.62s14.32-20.91,25.82-20.91H335.35c11.07,0,18.51,8.59,15.89,19.62m33.91-47.5c-2.62,11.05-14.32,20.91-25.82,20.91H172.92c-11.07,0-18.5-8.59-15.89-19.62s14.32-20.91,25.82-20.91H369.26c11.06,0,18.51,8.59,15.89,19.62m20-47.5c-2.62,11.05-14.31,20.91-25.82,20.91H160.07c-11.07,0-18.5-8.59-15.89-19.62S158.5,153.78,170,153.78H389.23c11.07,0,18.51,8.59,15.89,19.62"/></g></g></svg>